<?xml version="1.0" standalone="no"?>
<!DOCTYPE svg PUBLIC "-//W3C//DTD SVG 20010904//EN"
 "http://www.w3.org/TR/2001/REC-SVG-20010904/DTD/svg10.dtd">
<svg version="1.0" xmlns="http://www.w3.org/2000/svg"
 width="500.000000pt" height="500.000000pt" viewBox="0 0 500.000000 500.000000"
 preserveAspectRatio="xMidYMid meet">

<g transform="translate(0.000000,500.000000) scale(0.100000,-0.100000)"
fill="#000000" stroke="none">
<path d="M2350 4424 c-309 -39 -570 -146 -797 -328 -557 -449 -725 -1220 -405
-1865 98 -198 126 -210 260 -112 82 61 102 84 102 119 0 10 -23 62 -50 115
-106 200 -146 380 -137 611 8 226 69 416 193 603 69 106 222 260 322 326 467
311 1070 262 1481 -119 131 -121 260 -328 316 -504 50 -160 67 -362 45 -510
-23 -146 -23 -164 -4 -188 20 -25 178 -82 225 -82 61 0 87 55 110 238 16 126
6 369 -20 490 -56 264 -169 491 -348 697 -214 246 -538 431 -860 490 -85 16
-361 28 -433 19z m112 -140 c15 -27 28 -52 28 -56 0 -14 -28 -8 -34 7 -3 8
-14 15 -25 15 -11 0 -26 -7 -35 -15 -29 -30 -36 -15 -15 37 11 29 23 56 26 61
10 16 28 0 55 -49z m-271 -27 c10 -40 12 -43 40 -39 42 6 36 -15 -7 -23 -44
-8 -49 -3 -62 58 -8 38 -7 47 4 47 8 0 18 -19 25 -43z m665 -22 c7 -33 11 -61
9 -63 -2 -2 -11 6 -21 16 -21 22 -50 29 -77 17 -10 -4 -20 -6 -22 -4 -8 9 71
99 85 97 9 -2 19 -25 26 -63z m235 -24 c28 -22 18 -41 -11 -23 -26 16 -45 15
-59 -2 -16 -20 3 -56 29 -56 10 0 22 -4 25 -10 10 -17 -47 -11 -67 7 -36 33
-11 103 37 103 13 0 33 -9 46 -19z m-1221 -31 c0 -6 -11 -16 -25 -22 -14 -6
-25 -14 -25 -18 0 -15 14 -19 32 -9 29 16 36 0 9 -20 -31 -24 -10 -38 23 -16
15 10 26 12 30 6 6 -9 -72 -57 -79 -49 -7 9 -45 88 -45 96 0 8 56 40 73 41 4
1 7 -4 7 -9z m1403 -65 c20 -14 37 -30 37 -35 0 -13 -13 -13 -26 0 -8 8 -19
-2 -38 -31 -35 -53 -57 -39 -25 15 16 28 19 40 10 49 -13 13 -15 27 -3 27 4 0
24 -11 45 -25z m-1581 -82 c27 -24 23 -65 -10 -96 -15 -15 -31 -27 -34 -27 -8
0 -68 81 -68 91 0 10 62 49 79 49 8 0 23 -7 33 -17z m1742 -42 c3 -4 -6 -19
-19 -31 -27 -25 -33 -55 -12 -63 6 -2 26 9 44 25 42 40 66 27 26 -14 -44 -46
-57 -50 -87 -27 -33 26 -33 49 0 88 26 32 39 37 48 22z m178 -267 c-24 -50
-51 -69 -44 -31 4 26 -17 57 -38 57 -42 0 -26 19 28 32 79 20 88 11 54 -58z
m-2248 15 c-24 -26 -11 -34 20 -14 14 10 33 15 41 11 23 -9 19 -62 -7 -80 -31
-22 -43 -8 -17 20 26 28 18 45 -9 21 -35 -31 -86 -10 -66 26 15 27 37 46 46
41 5 -3 2 -15 -8 -25z m2386 -137 c0 -4 -16 -16 -35 -26 -38 -21 -40 -27 -25
-56 6 -11 6 -21 1 -24 -9 -6 -58 62 -50 68 2 2 24 15 48 29 41 24 61 27 61 9z
m-2441 -58 c31 -7 43 -24 16 -24 -19 0 -38 -36 -30 -60 11 -36 -12 -29 -49 16
-22 25 -35 51 -32 59 6 16 43 19 95 9z m2531 -137 c0 -7 -22 -20 -49 -30 -58
-20 -61 -21 -61 -4 0 7 19 20 43 29 52 20 67 22 67 5z m-2646 -69 c48 -13 61
-22 52 -37 -6 -9 -25 -5 -104 24 -7 3 -10 9 -7 15 8 13 9 13 59 -2z m2700
-104 c9 -24 7 -63 -4 -85 -8 -13 -21 -19 -45 -19 -28 0 -37 6 -50 30 -8 16
-15 40 -15 54 0 20 6 25 33 29 64 8 75 7 81 -9z m-2774 -74 c-14 -27 -12 -38
9 -50 29 -15 51 -2 51 30 0 33 15 48 24 24 11 -28 6 -51 -14 -69 -25 -23 -70
-23 -87 1 -16 22 -17 66 -1 82 17 17 30 4 18 -18z m2755 -174 c30 -14 55 -31
55 -38 0 -11 -97 -68 -115 -68 -12 0 -3 31 10 36 8 4 15 17 15 30 0 14 -7 27
-15 30 -13 6 -22 34 -10 34 2 0 29 -11 60 -24z m-2723 -46 c27 0 38 -4 35 -12
-2 -9 -21 -12 -58 -9 -30 1 -56 5 -58 6 -8 9 13 26 26 21 8 -3 33 -6 55 -6z
m-52 -170 c0 -19 4 -20 50 -14 42 6 50 4 50 -10 0 -11 -9 -16 -32 -16 -39 0
-52 -8 -62 -35 l-8 -20 -8 20 c-12 29 -12 95 0 95 6 0 10 -9 10 -20z m2814
-21 c6 -5 5 -25 -3 -49 -16 -53 -49 -70 -86 -46 -21 14 -25 24 -25 67 l0 50
53 -7 c28 -4 56 -10 61 -15z m-2690 -190 c46 -36 23 -109 -34 -109 -59 0 -82
91 -30 117 33 17 33 16 64 -8z m96 -219 c0 -6 -7 -25 -16 -41 -18 -37 -14 -45
16 -29 15 8 25 9 32 2 7 -7 -6 -19 -42 -37 -28 -14 -55 -24 -58 -20 -3 3 1 26
11 50 l16 45 -29 -15 c-35 -18 -40 -19 -40 -2 0 7 19 23 43 34 47 24 67 28 67
13z"/>
<path d="M2415 4290 c-8 -13 -1 -24 14 -19 6 3 7 10 2 18 -6 10 -10 10 -16 1z"/>
<path d="M2812 4258 c-16 -16 -15 -28 3 -28 8 0 15 9 15 20 0 23 -2 24 -18 8z"/>
<path d="M1622 4008 c-7 -9 -5 -19 8 -35 23 -28 36 -29 50 -2 20 36 -31 69
-58 37z"/>
<path d="M3580 3760 c-11 -7 -12 -12 -3 -21 8 -8 14 -6 22 10 12 22 5 27 -19
11z"/>
<path d="M1252 3509 c2 -6 8 -10 13 -10 5 0 11 4 13 10 2 6 -4 11 -13 11 -9 0
-15 -5 -13 -11z"/>
<path d="M3819 3212 c-13 -5 -14 -13 -8 -30 7 -18 15 -23 36 -20 22 2 28 8 28
28 0 26 -24 36 -56 22z"/>
<path d="M3860 2945 c0 -9 6 -12 15 -9 8 4 15 10 15 15 0 5 -7 9 -15 9 -8 0
-15 -7 -15 -15z"/>
<path d="M3820 2717 c0 -33 26 -54 48 -40 21 13 28 53 10 53 -7 0 -23 3 -35 6
-19 5 -23 2 -23 -19z"/>
<path d="M1160 2535 c-18 -22 -3 -55 25 -55 33 0 51 33 29 54 -19 20 -38 20
-54 1z"/>
<path d="M1822 3760 c-29 -4 -68 -11 -87 -14 l-35 -7 0 -562 c0 -614 -2 -591
58 -616 16 -7 60 -11 98 -9 94 4 94 4 94 245 l0 191 78 7 c220 19 324 109 352
306 21 147 -13 300 -83 372 -67 68 -132 89 -292 93 -71 1 -154 -1 -183 -6z
m272 -270 c18 -47 21 -143 5 -189 -12 -33 -20 -37 -101 -44 l-48 -5 0 139 0
139 64 0 64 0 16 -40z"/>
<path d="M2435 3123 c-30 -7 -55 -33 -55 -57 0 -12 74 -151 165 -311 l165
-290 0 -247 c0 -135 3 -254 6 -263 11 -27 60 -45 127 -45 100 0 97 -11 97 297
l0 261 144 280 c78 154 146 289 149 301 3 14 -3 31 -18 49 -22 25 -29 27 -103
27 -54 0 -84 -5 -96 -15 -10 -7 -56 -90 -103 -184 -62 -123 -87 -165 -94 -155
-5 8 -48 83 -96 168 -79 138 -92 156 -128 172 -38 18 -114 23 -160 12z"/>
<path d="M3441 2188 c-219 -256 -420 -381 -706 -443 -38 -9 -126 -18 -195 -21
-156 -8 -279 11 -442 66 -64 22 -126 40 -138 40 -31 0 -64 -38 -109 -129 -47
-93 -50 -119 -17 -152 28 -29 193 -91 309 -118 273 -64 574 -51 831 34 265 87
528 270 698 484 95 121 91 143 -41 227 -109 69 -139 71 -190 12z m169 -178 c0
-15 -60 -61 -75 -58 -32 6 -42 35 -24 67 12 20 14 32 7 39 -6 6 -7 15 -4 21 7
10 96 -55 96 -69z m-211 -134 c13 -54 14 -76 2 -76 -5 0 -34 12 -66 26 -39 18
-53 29 -44 35 7 4 17 5 21 2 13 -7 60 26 53 37 -8 13 4 32 14 25 5 -2 14 -25
20 -49z m-159 -187 c0 -3 -16 -13 -36 -22 -43 -21 -74 -9 -74 29 0 13 -7 27
-15 30 -26 11 -4 25 27 18 28 -6 30 -4 26 14 -11 40 17 29 44 -17 15 -25 28
-49 28 -52z m-244 -45 c-3 -26 -6 -55 -6 -65 0 -30 -23 -22 -69 25 -29 30 -39
46 -31 51 7 4 16 2 20 -5 10 -16 47 -4 60 21 20 36 33 22 26 -27z m-950 2 c-3
-11 -1 -38 3 -58 7 -29 6 -38 -4 -38 -7 0 -16 14 -20 30 -6 28 -8 29 -28 15
-41 -29 -53 -15 -16 18 20 18 39 40 43 50 8 25 29 10 22 -17z m178 -41 c6 -18
63 -20 68 -3 2 6 9 8 16 4 16 -9 -47 -106 -69 -106 -16 0 -39 63 -39 104 0 20
16 21 24 1z m554 -53 c-2 -29 -9 -40 -31 -50 -28 -14 -72 -8 -62 9 4 5 17 9
29 9 33 0 50 23 36 49 -14 27 -48 27 -52 1 -4 -29 -22 -26 -26 4 -4 33 41 49
81 29 24 -12 28 -19 25 -51z m-250 20 c17 -23 16 -92 -2 -92 -10 0 -16 14 -18
43 -2 34 -7 42 -23 42 -16 0 -21 -8 -23 -42 -4 -51 -32 -62 -32 -14 0 79 56
115 98 63z"/>
<path d="M3536 2023 c-3 -4 -6 -15 -6 -25 0 -24 33 -21 38 3 3 17 -21 33 -32
22z"/>
<path d="M3360 1860 c-13 -9 -13 -11 0 -20 15 -10 25 0 18 20 -2 6 -8 6 -18 0z"/>
<path d="M3163 1705 c-8 -21 1 -28 26 -20 12 4 18 12 14 21 -7 19 -32 18 -40
-1z"/>
<path d="M2940 1621 c0 -5 7 -14 15 -21 13 -10 15 -9 15 9 0 12 -6 21 -15 21
-8 0 -15 -4 -15 -9z"/>
<path d="M2237 1549 c4 -16 8 -17 14 -7 13 19 11 28 -5 28 -9 0 -12 -7 -9 -21z"/>
</g>
</svg>
